<?xml version="1.0" encoding="UTF-8" standalone="no"?>
<svg
   xmlns:dc="http://purl.org/dc/elements/1.1/"
   xmlns:cc="http://creativecommons.org/ns#"
   xmlns:rdf="http://www.w3.org/1999/02/22-rdf-syntax-ns#"
   xmlns:svg="http://www.w3.org/2000/svg"
   xmlns="http://www.w3.org/2000/svg"
   width="1920mm"
   height="580mm"
   viewBox="0 0 1920 580"
   version="1.1"
   id="svg1074">
  <defs
     id="defs1068" />
  <metadata
     id="metadata1071">
    <rdf:RDF>
      <cc:Work
         rdf:about="">
        <dc:format>image/svg+xml</dc:format>
        <dc:type
           rdf:resource="http://purl.org/dc/dcmitype/StillImage" />
        <dc:title></dc:title>
      </cc:Work>
    </rdf:RDF>
  </metadata>
  <g
     id="layer1"
     transform="translate(0,283)">
    <path
       id="path302"
       d="m 1615.0882,235.87877 c -3.1082,-1.69078 -9.3275,-6.1965 -13.8208,-10.01261 -4.4935,-3.81616 -26.6636,-21.20121 -49.2661,-38.63345 -41.0986,-31.69691 -50.1726,-40.53835 -48.7725,-47.52368 2.0478,-10.21808 -8.7674,-19.87033 -36.7537,-32.80198 -11.2041,-5.17712 -32.9534,-16.595561 -48.3308,-25.374375 -15.3781,-8.778791 -43.7366,-22.437509 -63.0188,-30.352775 -57.1034,-23.440606 -66.8596,-28.182516 -70.2568,-34.149553 -4.7783,-8.3920711 -16.6528,-9.682845 -39.2101,-4.262148 -19.3853,4.658407 -20.921,4.630792 -47.1599,-0.846667 -14.9169,-3.1140799 -30.3098,-5.1544994 -34.2054,-4.5343559 -3.8965,0.620167 -14.4668,1.2008517 -23.4907,1.290376 -25.0898,0.2489421 -38.3055,3.8865779 -57.2307,15.7526259 -9.5288,5.974511 -29.2568,17.108262 -43.8403,24.741585 -25.3654,13.277074 -36.0106,15.983097 -45.93291,11.676807 -6.35693,-2.758585 -5.16262,-7.420849 1.95061,-7.619624 10.178,-0.286139 25.2859,-6.52885 40.842,-16.880625 7.8369,-5.215516 21.7066,-14.323986 30.8201,-20.241158 9.1145,-5.917123 16.8189,-11.8762822 17.1215,-13.2425937 0.3038,-1.3663477 2.5788,-3.77720919 5.0582,-5.3576065 2.4794,-1.5803793 6.0768,-5.762883 7.9933,-9.2944848 4.9275,-9.078699 1.2699,-16.35324 -10.6528,-21.185162 -11.9102,-4.827131 -41.8366,-21.404041 -47.6515,-26.39547 -5.8524,-5.023873 -4.3183,-9.52387 4.7588,-13.960373 7.0041,-3.423021 9.2678,-3.226044 28.4449,2.475912 11.4592,3.407126 23.739,7.524959 27.2881,9.150821 4.7758,2.187643 6.3627,2.089136 6.1054,-0.378566 -0.3391,-3.25091 -11.2802,-10.738379 -23.7215,-16.232832 -3.6239,-1.600381 -5.8393,-4.273053 -5.3552,-6.460099 1.0212,-4.609012 13.0039,-0.774149 27.6507,8.848174 5.331,3.502522 17.9665,9.118268 28.0794,12.479332 10.1122,3.36101 21.8555,7.991867 26.0971,10.290731 4.2404,2.298809 13.0905,6.112911 19.6663,8.475685 17.2889,6.21196 27.9839,21.313256 16.3289,23.056198 -6.9034,1.032361 -18.6707,-2.652581 -24.0397,-7.527798 -7.0897,-6.438705 -29.5349,-11.480337 -30.5568,-6.863965 -1.1595,5.235372 6.1686,14.387802 14.2984,17.85779 7.5896,3.239318 26.3522,4.589118 38.6602,2.781216 10.3985,-1.527481 22.4139,1.719486 25.0034,6.7569408 2.7037,5.2618304 12.5217,13.7144072 17.1086,14.7303671 1.8246,0.4041443 8.0564,-1.1630928 13.8485,-3.482598 8.7043,-3.48537753 14.6876,-3.6880338 34.4818,-1.1680317 23.3283,2.9700182 30.3972,2.2370139 31.619,-3.2783809 1.1739,-5.3008389 -15.0566,-31.1169673 -23.554,-37.4649423 -9.8091,-7.327493 -10.3786,-9.81818 -2.3163,-10.123177 5.3786,-0.200811 5.4616,-0.400321 2.2651,-5.337984 -3.1575,-4.877804 -3.5111,-4.959691 -7.2855,-1.687278 -6.2336,5.403994 -8.5707,3.354879 -13.1754,-11.554213 -6.5049,-21.060089 -12.537,-28.228401 -32.6259,-38.769835 -9.7256,-5.10403 -24.1285,-12.76788 -32.006,-17.03087 -7.8768,-4.26309 -20.8252,-10.97685 -28.773,-14.91949 -7.948,-3.94278 -25.6813,-16.62352 -39.4075,-28.17969 -24.4528,-20.58714 -24.9201,-21.17277 -23.1811,-29.02591 1.6859,-7.61148 2.3711,-8.0291 13.6118,-8.29925 11.1003,-0.2668 12.7191,0.38211 26.0617,10.447 7.8242,5.90221 22.4876,15.12234 32.5842,20.48908 10.097,5.36685 22.6837,13.70873 27.9717,18.53743 7.5601,6.90388 13.205,9.72221 26.4234,13.19149 10.1762,2.67086 28.2207,10.41991 45.7243,19.63594 15.9034,8.37313 29.3765,15.32632 29.9414,15.45132 0.5648,0.12461 2.2141,4.80529 3.6652,10.400473 7.0983,27.365529 45.0385,54.261979 117.0864,83.003476 21.6222,8.625372 27.3774,8.5219461 51.63,-0.927687 22.5354,-8.78061 31.0092,-8.404956 47.5002,2.105901 7.7679,4.9506297 15.5368,7.0975641 43.3953,11.99189679 l 33.934,5.96166011 8.6992,9.7202241 c 4.7849,5.346123 12.1775,17.606895 16.4281,27.246026 4.2506,9.639167 10.2462,20.31599 13.323,23.726258 7.9946,8.860479 25.4834,14.396717 40.2921,12.754701 16.012,-1.775458 21.3184,-0.346454 27.7162,7.463677 6.7707,8.265224 34.4541,20.516454 56.2207,24.880234 20.8588,4.18171 28.498,7.48904 23.9678,10.3765 -5.5455,3.53436 -4.9597,8.14145 1.2091,9.50775 4.6673,1.0337 5.9766,0.19906 6.4647,-4.12019 0.5559,-4.92279 1.7497,-5.23206 13.1043,-3.39466 10.688,1.72947 14.5095,3.79096 26.4499,14.26726 19.063,16.7253 22.8009,22.45064 20.738,31.76436 -2.1606,9.75523 -9.032,12.77807 -28.0229,12.32778 -18.4928,-0.43849 -27.3515,3.73247 -29.613,13.94287 -3.5471,16.0148 -22.487,23.10775 -41.8444,15.67062 -5.5051,-2.11511 -10.3865,-4.92688 -10.8475,-6.24838 -1.2023,-3.44712 -8.2396,-2.10611 -18.0109,3.43209 -15.9334,9.03054 -21.3125,10.10059 -35.2529,7.01303 -18.4826,-4.09359 -23.9652,-2.75971 -37.1536,9.03916 -15.233,13.6283 -38.9031,18.2614 -53.2961,10.43204 z"
       style="fill:#de2c68;fill-opacity:1;stroke-width:2.40910769" />
    <path
       style="fill:#009ee0;fill-opacity:1;stroke-width:2.40910769"
       d="m 1612.3804,211.07071 c -3.1082,-1.69078 -9.3273,-6.19649 -13.8208,-10.01261 -4.4935,-3.81615 -26.6634,-21.2012 -49.2661,-38.63345 -41.0986,-31.6969 -50.1726,-40.53835 -48.7723,-47.52367 2.0477,-10.21808 -8.7674,-19.870332 -36.7539,-32.801987 -11.2042,-5.177119 -32.9535,-16.595558 -48.3308,-25.374372 -15.3779,-8.778791 -43.7366,-22.43751 -63.0188,-30.352776 -57.1033,-23.4405977 -66.8594,-28.1825131 -70.2568,-34.1495535 -4.7781,-8.3920615 -16.6528,-9.6828525 -39.2101,-4.2621485 -19.3853,4.6584008 -20.9209,4.6308036 -47.1599,-0.846668 -14.9169,-3.114082 -30.3096,-5.154498 -34.2054,-4.534358 -3.8963,0.620176 -14.4668,1.200855 -23.4905,1.290374 -25.0901,0.248953 -38.3058,3.886585 -57.231,15.75263149 -9.5287,5.97451111 -29.2567,17.10826251 -43.84,24.74158551 -25.3657,13.277074 -36.0106,15.983098 -45.93312,11.676809 -6.35693,-2.758586 -5.16262,-7.420851 1.95061,-7.619625 10.17801,-0.28614 25.28611,-6.52885 40.84191,-16.880625 7.837,-5.2155175 21.7067,-14.3239784 30.8204,-20.2411594 9.1145,-5.9171266 16.8187,-11.8762826 17.1213,-13.2425936 0.3038,-1.366348 2.579,-3.777209 5.0584,-5.357607 2.4792,-1.580361 6.0766,-5.762883 7.9932,-9.294484 4.9274,-9.0787 1.2698,-16.35324 -10.6529,-21.185145 -11.9102,-4.827148 -41.8364,-21.404058 -47.6514,-26.395487 -5.8525,-5.023873 -4.3182,-9.523871 4.7588,-13.960373 7.004,-3.423018 9.2677,-3.226048 28.4448,2.475912 11.4591,3.407125 23.739,7.524958 27.2881,9.15082 4.7758,2.187643 6.3627,2.089136 6.1055,-0.378565 -0.3392,-3.25091 -11.2803,-10.738379 -23.7216,-16.232835 -3.624,-1.60038 -5.8393,-4.27305 -5.3552,-6.4601 1.0212,-4.60901 13.0039,-0.77415 27.6508,8.84818 5.3309,3.502519 17.9666,9.118266 28.0795,12.47933 10.1122,3.361009 21.8555,7.991867 26.097,10.29073 4.2403,2.298809 13.0904,6.112911 19.6663,8.475686 17.2889,6.21196 27.984,21.313255 16.329,23.056197 -6.9036,1.032361 -18.6709,-2.65258 -24.0399,-7.527797 -7.0897,-6.438706 -29.5347,-11.480338 -30.5569,-6.863966 -1.1594,5.235373 6.1687,14.387803 14.2985,17.85779 7.5895,3.239318 26.3523,4.589119 38.6602,2.781217 10.3987,-1.527482 22.4139,1.719486 25.0034,6.75694 2.7039,5.261831 12.5217,13.714404 17.1088,14.730362 1.8244,0.404155 8.0562,-1.163095 13.8485,-3.482592 8.7043,-3.485378 14.6876,-3.688034 34.4818,-1.168032 23.3281,2.97002 30.397,2.237014 31.6188,-3.278381 1.1738,-5.300839 -15.0566,-31.116968 -23.554,-37.464943 -9.8091,-7.327492 -10.3786,-9.818179 -2.3163,-10.123176 5.3788,-0.200812 5.4618,-0.400321 2.2653,-5.337985 -3.1577,-4.877803 -3.5113,-4.95969 -7.2857,-1.687277 -6.2336,5.403993 -8.5707,3.354879 -13.1754,-11.554213 -6.5049,-21.06009 -12.537,-28.2284 -32.6258,-38.76984 -9.7257,-5.10402 -24.1286,-12.76787 -32.0061,-17.03087 -7.8768,-4.26309 -20.825,-10.97684 -28.773,-14.91951 -7.948,-3.94275 -25.6813,-16.62351 -39.4075,-28.17964 -24.4526,-20.58716 -24.9201,-21.1728 -23.1811,-29.02594 1.6861,-7.61145 2.3711,-8.0291 13.6118,-8.29925 11.1003,-0.2668 12.7191,0.38211 26.0617,10.44702 7.8244,5.90219 22.4875,15.12233 32.5844,20.48907 10.097,5.36683 22.6835,13.70872 27.9715,18.53746 7.5602,6.90384 13.205,9.72215 26.4234,13.19145 10.1764,2.67087 28.2207,10.41991 45.7243,19.63593 15.9034,8.37314 29.3765,15.32634 29.9414,15.45134 0.565,0.1246 2.2141,4.80528 3.6652,10.40047 7.0984,27.365526 45.0387,54.261976 117.0866,83.003474 21.622,8.625372 27.3772,8.521946 51.6298,-0.927687 22.5354,-8.78061 31.0092,-8.404957 47.5003,2.1059 7.7678,4.95063 15.5367,7.097565 43.3952,11.991897 l 33.934,5.96167 8.6992,9.7202146 c 4.7849,5.3461227 12.1775,17.6068967 16.4281,27.2460254 4.2508,9.639167 10.2462,20.315992 13.3229,23.726261 7.9947,8.860479 25.4835,14.396716 40.2922,12.754699 16.0122,-1.775456 21.3184,-0.346454 27.7162,7.463679 6.7707,8.265222 34.4543,20.516456 56.2209,24.880234 20.8586,4.18171 28.4979,7.489036 23.9676,10.376499 -5.5455,3.534364 -4.9596,8.141444 1.2091,9.507754 4.6673,1.0337 5.9766,0.19906 6.4647,-4.1202 0.5559,-4.92279 1.7497,-5.232051 13.1043,-3.394659 10.688,1.729469 14.5095,3.790969 26.45,14.267259 19.0629,16.7253 22.801,22.45065 20.738,31.76437 -2.1607,9.75522 -9.032,12.77807 -28.0228,12.32777 -18.493,-0.43849 -27.3516,3.73248 -29.6132,13.94287 -3.547,16.0148 -22.4868,23.10776 -41.8442,15.67062 -5.5052,-2.1151 -10.3868,-4.92687 -10.8475,-6.24838 -1.2023,-3.44711 -8.2398,-2.10611 -18.0111,3.4321 -15.9332,9.03053 -21.3123,10.10059 -35.2529,7.01303 -18.4826,-4.09359 -23.9652,-2.75971 -37.1536,9.03915 -15.233,13.62831 -38.9031,18.2614 -53.2961,10.43204 z"
       id="path252" />
    <g
       style="fill:#ffffff"
       id="g266"
       transform="matrix(3.9288914,0,0,3.9288914,1827.6247,2118.4312)">
      <path
         d="m -105.11007,-590.47538 h 12.430773 v 2.84239 h -4.619866 v 11.49683 h -3.345827 v -11.49683 h -4.46508 z"
         style="font-style:normal;font-variant:normal;font-weight:normal;font-stretch:normal;font-size:23.01458931px;line-height:1.25;font-family:'Hit the Road';-inkscape-font-specification:'Hit the Road, Normal';font-variant-ligatures:normal;font-variant-caps:normal;font-variant-numeric:normal;font-feature-settings:normal;text-align:start;letter-spacing:0px;word-spacing:0px;writing-mode:lr-tb;text-anchor:start;fill:#ffffff;fill-opacity:1;stroke:none;stroke-width:0.57537842"
         id="path254" />
      <path
         d="m -71.033591,-590.72992 q 1.714589,0 3.262482,0.69999 1.547893,0.69999 2.548071,2.48178 l -2.952904,1.31514 q -0.76204,-1.44241 -2.500443,-1.54846 -1.738403,-0.10606 -2.92909,0.91211 -1.190687,1.01817 -1.309756,3.24541 -0.119069,2.22725 1.000177,3.54239 1.119246,1.31513 2.905276,1.31513 1.786031,0 3.060066,-1.77119 l 2.70286,1.4212 q -1.119246,1.83482 -2.571884,2.55603 -1.452639,0.72119 -3.953081,0.65756 -2.500443,-0.0636 -4.453171,-1.86665 -1.952726,-1.803 -2.000353,-5.49387 -0.04763,-3.69086 2.238491,-5.57871 2.28612,-1.88786 4.953259,-1.88786 z"
         style="font-style:normal;font-variant:normal;font-weight:normal;font-stretch:normal;font-size:23.01458931px;line-height:1.25;font-family:'Hit the Road';-inkscape-font-specification:'Hit the Road, Normal';font-variant-ligatures:normal;font-variant-caps:normal;font-variant-numeric:normal;font-feature-settings:normal;text-align:start;letter-spacing:0px;word-spacing:0px;writing-mode:lr-tb;text-anchor:start;fill:#ffffff;fill-opacity:1;stroke:none;stroke-width:0.57537842"
         id="path256" />
      <path
         d="m -63.630293,-590.47538 h 3.179135 v 5.5363 h 6.536872 v -5.5363 h 3.191041 v 14.33922 h -3.191041 v -5.96053 h -6.536872 v 5.96053 h -3.179135 z"
         style="font-style:normal;font-variant:normal;font-weight:normal;font-stretch:normal;font-size:23.01458931px;line-height:1.25;font-family:'Hit the Road';-inkscape-font-specification:'Hit the Road, Normal';font-variant-ligatures:normal;font-variant-caps:normal;font-variant-numeric:normal;font-feature-settings:normal;text-align:start;letter-spacing:0px;word-spacing:0px;writing-mode:lr-tb;text-anchor:start;fill:#ffffff;fill-opacity:1;stroke:none;stroke-width:0.57537842"
         id="path258" />
      <path
         d="m -48.486771,-590.47538 h 3.191042 l 6.905984,8.65444 v -8.65444 h 3.191042 v 14.33922 h -3.191042 l -6.905984,-9.41807 v 9.41807 h -3.191042 z"
         style="font-style:normal;font-variant:normal;font-weight:normal;font-stretch:normal;font-size:23.01458931px;line-height:1.25;font-family:'Hit the Road';-inkscape-font-specification:'Hit the Road, Normal';font-variant-ligatures:normal;font-variant-caps:normal;font-variant-numeric:normal;font-feature-settings:normal;text-align:start;letter-spacing:0px;word-spacing:0px;writing-mode:lr-tb;text-anchor:start;fill:#ffffff;fill-opacity:1;stroke:none;stroke-width:0.57537842"
         id="path260" />
      <path
         d="m -31.709987,-590.47538 h 3.179134 v 14.33922 h -3.179134 z"
         style="font-style:normal;font-variant:normal;font-weight:normal;font-stretch:normal;font-size:23.01458931px;line-height:1.25;font-family:'Hit the Road';-inkscape-font-specification:'Hit the Road, Normal';font-variant-ligatures:normal;font-variant-caps:normal;font-variant-numeric:normal;font-feature-settings:normal;text-align:start;letter-spacing:0px;word-spacing:0px;writing-mode:lr-tb;text-anchor:start;fill:#ffffff;fill-opacity:1;stroke:none;stroke-width:0.57537842"
         id="path262" />
      <path
         d="m -25.196928,-590.47538 h 3.191042 l 0.02382,6.19386 5.643857,-6.19386 h 3.953081 l -4.715121,4.96358 5.85818,9.37564 h -3.845919 l -4.393636,-6.87265 -2.500442,2.58785 v 4.2848 h -3.214856 z"
         style="font-style:normal;font-variant:normal;font-weight:normal;font-stretch:normal;font-size:23.01458931px;line-height:1.25;font-family:'Hit the Road';-inkscape-font-specification:'Hit the Road, Normal';font-variant-ligatures:normal;font-variant-caps:normal;font-variant-numeric:normal;font-feature-settings:normal;text-align:start;letter-spacing:0px;word-spacing:0px;writing-mode:lr-tb;text-anchor:start;fill:#ffffff;fill-opacity:1;stroke:none;stroke-width:0.57537842"
         id="path264" />
    </g>
    <path
       id="circle278"
       d="m 1505.7324,-204.87891 c -3.7675,3e-5 -6.8356,2.62458 -7.8047,6.09766 h -16.7675 l -9.7793,9.7793 v 4.73437 21.29688 5.27343 l 9.7793,9.77735 h 16.7675 c 0.9679,3.47493 4.0359,6.10154 7.8047,6.10156 4.5265,-3e-5 8.2422,-3.71569 8.2422,-8.24219 0,-4.52649 -3.7157,-8.2402 -8.2422,-8.24023 -3.7716,2e-5 -6.8414,2.62859 -7.8066,6.10742 h -14.9961 l -7.2754,-7.27344 v -3.5039 -9.1836 h 22.2832 c 0.9844,3.44985 4.0441,6.05076 7.7949,6.05078 4.5265,-3e-5 8.2422,-3.71569 8.2422,-8.24218 0,-4.52649 -3.7157,-8.24216 -8.2422,-8.24219 -3.7888,2e-5 -6.8674,2.65521 -7.8164,6.1582 h -22.2617 v -7.83789 -2.96484 l 7.2754,-7.27344 h 14.9961 c 0.9646,3.47976 4.0344,6.1113 7.8066,6.11133 4.5265,-3e-5 8.2422,-3.7157 8.2422,-8.24219 0,-4.5265 -3.7157,-8.24216 -8.2422,-8.24219 z m 0,4.27344 c 2.2169,2e-5 3.9688,1.75183 3.9688,3.96875 0,2.21692 -1.7519,3.96874 -3.9688,3.96875 -2.2169,-1e-5 -3.9687,-1.75183 -3.9687,-3.96875 0,-2.21692 1.7518,-3.96873 3.9687,-3.96875 z m 0,22.29102 c 2.2169,1e-5 3.9688,1.75183 3.9688,3.96875 0,2.21691 -1.7519,3.96873 -3.9688,3.96875 -2.2169,-2e-5 -3.9687,-1.75184 -3.9687,-3.96875 0,-2.21692 1.7518,-3.96874 3.9687,-3.96875 z m 0,24.28711 c 2.2169,1e-5 3.9688,1.74988 3.9688,3.96679 0,2.21692 -1.7519,3.96874 -3.9688,3.96875 -2.2169,-1e-5 -3.9687,-1.75183 -3.9687,-3.96875 0,-2.21691 1.7518,-3.96678 3.9687,-3.96679 z"
       style="color:#000000;font-style:normal;font-variant:normal;font-weight:normal;font-stretch:normal;font-size:medium;line-height:normal;font-family:sans-serif;font-variant-ligatures:normal;font-variant-position:normal;font-variant-caps:normal;font-variant-numeric:normal;font-variant-alternates:normal;font-feature-settings:normal;text-indent:0;text-align:start;text-decoration:none;text-decoration-line:none;text-decoration-style:solid;text-decoration-color:#000000;letter-spacing:normal;word-spacing:normal;text-transform:none;writing-mode:lr-tb;direction:ltr;text-orientation:mixed;dominant-baseline:auto;baseline-shift:baseline;text-anchor:start;white-space:normal;shape-padding:0;clip-rule:nonzero;display:inline;overflow:visible;visibility:visible;opacity:1;isolation:auto;mix-blend-mode:normal;color-interpolation:sRGB;color-interpolation-filters:linearRGB;solid-color:#000000;solid-opacity:1;vector-effect:none;fill:#71c837;fill-opacity:1;fill-rule:nonzero;stroke:none;stroke-width:4.2735281;stroke-linecap:butt;stroke-linejoin:miter;stroke-miterlimit:4;stroke-dasharray:none;stroke-dashoffset:0;stroke-opacity:1;color-rendering:auto;image-rendering:auto;shape-rendering:auto;text-rendering:auto;enable-background:accumulate" />
    <path
       d="m 1444.0786,-137.09718 q 7.0128,0 13.3442,2.86316 6.3311,2.86309 10.4222,10.15105 l -12.0782,5.37918 q -3.1169,-5.89979 -10.2272,-6.33356 -7.1105,-0.43382 -11.9807,3.73075 -4.8702,4.16454 -5.3572,13.27447 -0.487,9.109916 4.0909,14.489115 4.578,5.3792 11.8833,5.3792 7.3052,0 12.5163,-7.244557 l 11.0553,5.812978 q -4.5779,7.504866 -10.5196,10.45474 -5.9415,2.949874 -16.1689,2.6896 -10.2274,-0.260383 -18.2145,-7.634986 -7.9871,-7.374711 -8.1818,-22.47116 -0.1948,-15.09645 9.1558,-22.81822 9.3507,-7.72176 20.2601,-7.72176 z"
       style="font-style:normal;font-variant:normal;font-weight:normal;font-stretch:normal;font-size:29.14043427px;line-height:1.25;font-family:'Hit the Road';-inkscape-font-specification:'Hit the Road, Normal';font-variant-ligatures:normal;font-variant-caps:normal;font-variant-numeric:normal;font-feature-settings:normal;text-align:start;letter-spacing:0px;word-spacing:0px;writing-mode:lr-tb;text-anchor:start;fill:#ffffff;fill-opacity:1;stroke:none;stroke-width:2.35343289"
       id="path282" />
    <path
       d="m 1531.4895,-136.05603 h 12.3703 l 17.9708,35.91916 18.1172,-35.91916 h 12.8084 v 58.650596 h -13.052 v -33.099426 l -18.0683,33.967036 -17.7275,-33.316296 v 32.448686 h -12.4189 z"
       style="font-style:normal;font-variant:normal;font-weight:normal;font-stretch:normal;font-size:29.14043427px;line-height:1.25;font-family:'Hit the Road';-inkscape-font-specification:'Hit the Road, Normal';font-variant-ligatures:normal;font-variant-caps:normal;font-variant-numeric:normal;font-feature-settings:normal;text-align:start;letter-spacing:0px;word-spacing:0px;writing-mode:lr-tb;text-anchor:start;fill:#ffffff;fill-opacity:1;stroke:none;stroke-width:2.35343289"
       id="path284" />
    <path
       d="m 1614.8888,-124.43002 v 15.09647 h 16.9481 q 3.7012,-0.17343 5.8443,-2.42931 2.1428,-2.25582 2.1428,-5.55274 0,-3.29693 -2.5326,-5.20569 -2.5323,-1.90873 -5.8442,-1.90873 z m -13.0034,-11.62601 h 29.9515 q 18.2632,1.73524 21.5262,15.66038 0.6331,10.45474 -4.578,16.26774 -6.6235,5.899784 -17.9222,5.899784 h -15.9741 v 20.822692 h -13.0034 z"
       style="font-style:normal;font-variant:normal;font-weight:normal;font-stretch:normal;font-size:29.14043427px;line-height:1.25;font-family:'Hit the Road';-inkscape-font-specification:'Hit the Road, Normal';font-variant-ligatures:normal;font-variant-caps:normal;font-variant-numeric:normal;font-feature-settings:normal;text-align:start;letter-spacing:0px;word-spacing:0px;writing-mode:lr-tb;text-anchor:start;fill:#ffffff;fill-opacity:1;stroke:none;stroke-width:2.35343289"
       id="path286" />
    <path
       id="path288"
       d="m 1496.9902,-135.52148 a 2.0168798,2.0168798 0 0 0 -1.7968,1.10156 l -27.5059,53.988279 a 2.0168798,2.0168798 0 0 0 1.7969,2.931641 h 55.0078 a 2.0168798,2.0168798 0 0 0 1.7969,-2.931641 l -27.502,-53.988279 a 2.0168798,2.0168798 0 0 0 -1.7969,-1.10156 z m 0,6.45898 24.211,47.529297 h -48.4258 z"
       style="color:#000000;font-style:normal;font-variant:normal;font-weight:normal;font-stretch:normal;font-size:medium;line-height:normal;font-family:sans-serif;font-variant-ligatures:normal;font-variant-position:normal;font-variant-caps:normal;font-variant-numeric:normal;font-variant-alternates:normal;font-feature-settings:normal;text-indent:0;text-align:start;text-decoration:none;text-decoration-line:none;text-decoration-style:solid;text-decoration-color:#000000;letter-spacing:normal;word-spacing:normal;text-transform:none;writing-mode:lr-tb;direction:ltr;text-orientation:mixed;dominant-baseline:auto;baseline-shift:baseline;text-anchor:start;white-space:normal;shape-padding:0;clip-rule:nonzero;display:inline;overflow:visible;visibility:visible;opacity:1;isolation:auto;mix-blend-mode:normal;color-interpolation:sRGB;color-interpolation-filters:linearRGB;solid-color:#000000;solid-opacity:1;vector-effect:none;fill:#ffcc00;fill-opacity:1;fill-rule:nonzero;stroke:none;stroke-width:4.03335619;stroke-linecap:butt;stroke-linejoin:round;stroke-miterlimit:4;stroke-dasharray:none;stroke-dashoffset:0;stroke-opacity:1;color-rendering:auto;image-rendering:auto;shape-rendering:auto;text-rendering:auto;enable-background:accumulate" />
    <path
       style="fill:#ffcc00;stroke:none;stroke-width:1.46788466;stroke-linecap:butt;stroke-linejoin:round;stroke-miterlimit:4;stroke-dasharray:none;stroke-opacity:1"
       d="m 1486.9937,-80.160699 h 19.9904 l -9.9932,-19.676489 z"
       id="path290" />
    <text
       transform="scale(0.97216772,1.0286291)"
       id="text296"
       y="-75.42028"
       x="1708.2451"
       style="font-style:normal;font-variant:normal;font-weight:bold;font-stretch:normal;font-size:57.13396835px;line-height:1.25;font-family:'Montserrat Alternates';-inkscape-font-specification:'Montserrat Alternates, Bold';font-variant-ligatures:normal;font-variant-caps:normal;font-variant-numeric:normal;font-feature-settings:normal;text-align:start;letter-spacing:0px;word-spacing:0px;writing-mode:lr-tb;text-anchor:start;fill:#ffffff;fill-opacity:1;stroke:none;stroke-width:1.42834699"
       xml:space="preserve"><tspan
         style="font-style:normal;font-variant:normal;font-weight:bold;font-stretch:normal;font-size:57.13396835px;font-family:'Montserrat Alternates';-inkscape-font-specification:'Montserrat Alternates, Bold';font-variant-ligatures:normal;font-variant-caps:normal;font-variant-numeric:normal;font-feature-settings:normal;text-align:start;writing-mode:lr-tb;text-anchor:start;fill:#ffffff;stroke-width:1.42834699"
         y="-75.42028"
         x="1708.2451"
         id="tspan294">2019</tspan></text>
  </g>
</svg>
